HIERARCHY
ROOT Hips
{
	OFFSET 54.717701 -8.483314 83.896896
	CHANNELS 6 Xposition Yposition Zposition Xrotation Yrotation Zrotation
	JOINT spine
	{
		OFFSET 0.000000 -0.342408 5.954376
		CHANNELS 3 Xrotation Yrotation Zrotation
		JOINT spine1
		{
			OFFSET 0.000000 -0.000002 8.856018
			CHANNELS 3 Xrotation Yrotation Zrotation
			JOINT spine2
			{
				OFFSET 0.000000 -0.000001 8.485672
				CHANNELS 3 Xrotation Yrotation Zrotation
				JOINT Neck
				{
					OFFSET 0.000000 -1.038704 21.786301
					CHANNELS 3 Xrotation Yrotation Zrotation
					JOINT Head
					{
						OFFSET 0.000000 -0.000001 6.582199
						CHANNELS 3 Xrotation Yrotation Zrotation
						End Site
						{
							OFFSET 0.000000 5.254357 15.932602
						}
					}
				}
				JOINT RightShoulder
				{
					OFFSET -3.573071 0.497523 9.163864
					CHANNELS 3 Xrotation Yrotation Zrotation
					JOINT RightArm
					{
						OFFSET 0.000000 -0.000002 12.019196
						CHANNELS 3 Xrotation Yrotation Zrotation
						JOINT RightArmRoll
						{
							OFFSET 0.000000 -0.000001 6.067551
							CHANNELS 3 Xrotation Yrotation Zrotation
							JOINT RightForeArm
							{
								OFFSET 0.000000 -0.000003 17.672607
								CHANNELS 3 Xrotation Yrotation Zrotation
								JOINT RightForeArmRoll
								{
									OFFSET 0.000000 -0.000001 6.808716
									CHANNELS 3 Xrotation Yrotation Zrotation
									JOINT RightHand
									{
										OFFSET 0.000000 -0.000002 13.663605
										CHANNELS 3 Xrotation Yrotation Zrotation
										End Site
										{
											OFFSET 0.000000 -0.000001 0.100006
										}
									}
								}
							}
						}
					}
				}
				JOINT LeftShoulder
				{
					OFFSET 3.573071 0.497523 9.163864
					CHANNELS 3 Xrotation Yrotation Zrotation
					JOINT LeftArm
					{
						OFFSET 0.000000 -0.000002 12.019196
						CHANNELS 3 Xrotation Yrotation Zrotation
						JOINT LeftArmRoll
						{
							OFFSET 0.000000 -0.000001 6.067535
							CHANNELS 3 Xrotation Yrotation Zrotation
							JOINT LeftForeArm
							{
								OFFSET 0.000000 -0.000003 17.672592
								CHANNELS 3 Xrotation Yrotation Zrotation
								JOINT LeftForeArmRoll
								{
									OFFSET 0.000000 -0.000001 6.808716
									CHANNELS 3 Xrotation Yrotation Zrotation
									JOINT LeftHand
									{
										OFFSET 0.000000 -0.000002 13.663605
										CHANNELS 3 Xrotation Yrotation Zrotation
										End Site
										{
											OFFSET 0.000000 -0.000001 0.100006
										}
									}
								}
							}
						}
					}
				}
			}
		}
	}
	JOINT RightUpLeg
	{
		OFFSET -5.277740 0.811858 -0.967796
		CHANNELS 3 Xrotation Yrotation Zrotation
		JOINT RightUpLegRoll
		{
			OFFSET 0.000000 -0.000003 16.021400
			CHANNELS 3 Xrotation Yrotation Zrotation
			JOINT RightLeg
			{
				OFFSET 0.000000 0.000003 -19.840103
				CHANNELS 3 Xrotation Yrotation Zrotation
				JOINT RightLegRoll
				{
					OFFSET 0.000000 -0.000003 19.904999
					CHANNELS 3 Xrotation Yrotation Zrotation
					JOINT RightFoot
					{
						OFFSET 0.000000 -0.000002 16.567497
						CHANNELS 3 Xrotation Yrotation Zrotation
						JOINT RightToeBase
						{
							OFFSET 0.000000 -0.000002 13.849602
							CHANNELS 3 Xrotation Yrotation Zrotation
							End Site
							{
								OFFSET 0.005871 0.773116 6.707275
							}
						}
					}
				}
			}
		}
	}
	JOINT LeftUpLeg
	{
		OFFSET 5.277740 0.811858 -0.967796
		CHANNELS 3 Xrotation Yrotation Zrotation
		JOINT LeftUpLegRoll
		{
			OFFSET 0.000000 -0.000003 16.021500
			CHANNELS 3 Xrotation Yrotation Zrotation
			JOINT LeftLeg
			{
				OFFSET 0.000000 -0.000003 19.840004
				CHANNELS 3 Xrotation Yrotation Zrotation
				JOINT LeftLegRoll
				{
					OFFSET 0.000000 -0.000003 20.089005
					CHANNELS 3 Xrotation Yrotation Zrotation
					JOINT LeftFoot
					{
						OFFSET 0.000000 -0.000003 16.383499
						CHANNELS 3 Xrotation Yrotation Zrotation
						JOINT LeftToeBase
						{
							OFFSET 0.000000 -0.000002 13.849594
							CHANNELS 3 Xrotation Yrotation Zrotation
							End Site
							{
								OFFSET -0.026310 0.773116 6.707275
							}
						}
					}
				}
			}
		}
	}
}
MOTION
Frames: 4
Frame Time: 0.041667
53.439205 -11.680515 88.511497 1.994690 -4.421860 1.534968 -1.461404 0.931186 0.116011 1.078059 1.860470 0.248209 2.723452 1.863324 0.225841 -10.096485 16.155235 -4.021547 7.946914 -21.036390 -6.080638 -15.094242 -41.507889 -17.367023 -170.010061 -164.036460 -106.011400 -0.000001 0.000001 -0.000000 32.058859 3.477581 -3.224013 -0.000005 -0.000005 -2.999997 -5.000172 -7.999937 -0.000074 -13.277661 20.983987 13.847351 -155.532860 154.221532 110.320020 -0.000001 0.000004 0.000000 28.115557 -3.565862 3.089062 0.000003 0.000001 2.999990 -5.000166 7.999928 0.000072 -7.524083 -160.697098 6.528731 -179.999991 0.000007 -1.348001 167.203810 2.599875 -0.351729 -0.000003 -0.000000 0.029737 67.765394 6.987853 1.971995 25.418979 -7.355625 -0.046445 -6.398047 -188.624785 0.600311 -0.000005 -0.000005 -1.384760 -9.393913 -3.758996 -0.126938 0.000004 -0.000000 0.418442 65.053064 -7.157090 -1.759075 25.391198 7.355613 0.078545 
53.515800 -11.759015 88.776695 1.862186 -4.525149 1.560318 -1.423799 0.982539 0.109692 1.153257 1.963312 0.235122 2.798708 1.966004 0.211544 -10.509391 15.195422 -4.151815 8.351636 -20.165022 -6.010832 -15.262433 -42.329609 -17.616854 -169.910450 -163.685333 -106.334134 0.000002 -0.000000 0.000001 31.546332 3.482452 -3.203858 -0.000003 -0.000002 -2.999999 -5.000174 -7.999942 -0.000079 -13.281566 20.920168 13.852023 -155.301208 152.701774 110.725160 0.000001 0.000003 0.000000 29.042159 -3.556553 3.127800 0.000004 0.000001 2.999988 -5.000170 7.999926 0.000067 -7.201487 -160.757641 6.624859 -179.999991 0.000006 -1.340994 167.525552 2.549444 -0.346193 -0.000003 0.000001 0.033182 67.816381 6.976322 1.997293 25.438782 -7.355635 -0.022233 -6.032912 -188.332276 0.683469 -0.000004 -0.000004 -1.380290 -8.943098 -3.774556 -0.124724 0.000004 0.000001 0.426054 65.034076 -7.138527 -1.803198 25.425439 7.355632 0.037590 
53.483109 -11.751218 89.057701 1.746073 -4.613876 1.582065 -1.390785 1.028977 0.103961 1.219306 2.056305 0.223230 2.864811 2.058835 0.198559 -10.866469 14.299505 -4.284323 8.697514 -19.358508 -5.957525 -15.423435 -43.090434 -17.847682 -169.792656 -163.281013 -106.682063 0.000002 -0.000000 0.000001 31.028730 3.487909 -3.183865 0.000001 -0.000002 -3.000000 -5.000168 -7.999938 -0.000073 -13.275675 20.889360 13.843198 -155.061495 151.256807 111.121031 -0.000002 0.000006 0.000000 29.838282 -3.548204 3.161309 0.000002 -0.000003 2.999988 -5.000170 7.999922 0.000071 -6.909594 -160.837868 6.704376 -179.999991 0.000004 -1.334996 167.812215 2.500417 -0.340133 -0.000003 0.000001 0.034794 67.853927 6.966204 2.020032 25.452010 -7.355622 -0.005971 -5.707027 -188.061390 0.762625 -0.000004 -0.000003 -1.374910 -8.547018 -3.782675 -0.122709 0.000004 0.000001 0.433113 65.017028 -7.122011 -1.842438 25.448469 7.355618 0.010064 
53.535606 -11.756617 89.279198 1.649555 -4.685447 1.599638 -1.363366 1.069607 0.098972 1.274137 2.137662 0.212919 2.919699 2.140061 0.187286 -11.159158 13.479085 -4.412281 8.978230 -18.629826 -5.916749 -15.571310 -43.782909 -18.050416 -169.655547 -162.818569 -107.057314 0.000001 -0.000001 0.000000 30.505534 3.494063 -3.164064 -0.000002 -0.000003 -2.999998 -5.000165 -7.999936 -0.000075 -13.257949 20.898888 13.817878 -154.808915 149.902531 111.502299 0.000000 0.000004 -0.000001 30.477465 -3.541175 3.188202 0.000003 0.000000 2.999991 -5.000170 7.999926 0.000067 -6.652811 -160.939802 6.765174 -179.999991 0.000006 -1.328999 168.061203 2.451863 -0.334753 -0.000003 0.000000 0.033965 67.874117 6.957852 2.039818 25.456959 -7.355615 -0.000013 -5.425398 -187.815285 0.834504 -0.000005 -0.000004 -1.368530 -8.210898 -3.781361 -0.121219 0.000004 0.000002 0.439839 65.000766 -7.108023 -1.875889 25.456948 7.355615 -0.000018 
